PathFileType	4	(X/Y/Z)	C:/Users/beibeiliu/ov580/test_trc\sequence.7_training_dense_left.trc
DataRate	CameraRate	NumFrames	NumMarkers	Units	OrigDataRate	OrigDataStartFrame	OrigNumFrames
120	120	18	19	mm	120	36	70
Frame#	Time	ThumbCMC			ThumbMCP			ThumbIP			ThumbTip			IndexMCP			IndexPIP			IndexTip			MiddleMCP			MiddlePIP			MiddleTip			RingMCP			RingPIP			RingTip			PinkyMCP			PinkyPIP			PinkyTip			BackHand1			BackHand2			BackHand3	
		X0	Y0	Z0	X1	Y1	Z1	X2	Y2	Z2	X3	Y3	Z3	X4	Y4	Z4	X5	Y5	Z5	X6	Y6	Z6	X7	Y7	Z7	X8	Y8	Z8	X9	Y9	Z9	X10	Y10	Z10	X11	Y11	Z11	X12	Y12	Z12	X13	Y13	Z13	X14	Y14	Z14	X15	Y15	Z15	X16	Y16	Z16	X17	Y17	Z17	X18	Y18	Z18	
35	0.291667	-208.364	52.9152	126.462	-185.024	72.6611	116.093	-164.328	78.238	104.791	-140.776	67.0164	96.265	-174.524	35.9804	59.2994	-148.204	38.9224	38.492	-122.352	37.1806	38.2495	-165.235	7.90377	54.4788	-136.907	11.864	41.1159	-106.242	21.1566	52.9105	-158.794	-8.31708	65.8827	-127.173	-2.05267	58.435	-109.821	12.1748	79.5445	-153.846	-24.7883	81.4144	-124.815	-17.7515	78.326	-108.631	-1.34123	94.8417	-198.48	-9.69326	95.965	-219.261	-10.6944	120.046	-213.705	19.2871	105.603	
36	0.3	-232.141	27.0843	116.112	-218.254	50.5807	101.84	-203.021	63.3081	87.2183	-177.798	66.7085	72.5765	-194.981	8.05331	50.6415	-177.983	13.8795	29.0698	-150.064	25.8613	23.4349	-180.817	-11.2004	50.6256	-157.962	-2.73276	31.3567	-127.943	15.3846	37.8028	-166.39	-22.8768	64.2008	-141.408	-11.3222	51.0419	-126.331	19.056	66.6178	-153.891	-31.1285	79.8788	-131.387	-18.1753	72.3424	-118.521	8.99929	83.1421	-200.137	-33.8194	101.149	-217.661	-35.4987	122.326	-224.842	-10.3301	102.809	
37	0.308333	-247.452	-2.0256	111.93	-241.201	21.8364	92.8718	-231.917	34.8283	76.042	-212.933	40.7025	55.7909	-220.571	-25.6873	42.0849	-207.893	-17.9039	18.3516	-187.081	-0.186497	7.78505	-202.057	-42.4684	48.6348	-182.845	-34.0802	23.5434	-158.755	-10.4092	20.7978	-183.462	-49.4653	59.0472	-163.733	-31.2931	38.4177	-149.128	-1.24368	49.1726	-169.662	-53.7367	78.7687	-147.612	-38.3715	63.3772	-141.57	-10.547	59.6996	-214.562	-55.4857	102.951	-221.856	-60.671	129.19	-241.405	-37.6243	102.327	
38	0.316667	-261.622	-14.3122	112.957	-258.481	11.6705	92.6766	-251.759	21.964	68.5732	-235.037	20.9685	50.5544	-252.66	-42.3621	46.0966	-244.842	-35.9817	14.9897	-220.716	-24.4046	0.721201	-236.239	-58.2982	44.2655	-217.235	-54.5527	16.862	-191.466	-30.2811	7.95073	-214.874	-65.8358	50.641	-195.752	-54.2903	29.2809	-180.378	-25.4679	31.4166	-194.817	-69.1105	67.2175	-174.761	-57.2247	51.4771	-165.747	-24.7619	46.6806	-231.862	-70.3523	102.978	-241.548	-67.6136	128.76	-262.239	-50.1106	106.55	
39	0.325	-268.449	-3.90491	112.901	-257.954	15.644	93.7011	-251.182	26.7218	64.7827	-237.277	19.5033	40.6233	-277.761	-31.6165	40.8697	-272.659	-28.9785	16.1373	-246.648	-20.5113	-3.68759	-265.675	-55.2727	39.2492	-250.464	-51.5966	11.3642	-223.903	-39.5924	1.30253	-250.423	-63.9971	46.33	-229.409	-58.7708	22.385	-203.47	-36.3462	23.5023	-229.284	-75.5961	57.7226	-209.61	-66.1688	40.2799	-193.445	-39.0602	39.3348	-264.546	-64.2022	98.689	-263.903	-62.7319	126.904	-281.547	-35.3934	108.839	
40	0.333333	-258.658	17.6098	111.788	-241.372	27.0494	91.0383	-231.651	35.1971	66.1953	-223.373	25.0827	41.335	-285.309	-1.92316	40.2247	-277.545	1.09512	13.5375	-254.996	-5.82064	-4.62007	-285.876	-25.5235	36.7025	-274.284	-27.8628	8.30323	-242.006	-24.8258	-4.52269	-277.642	-45.4573	41.2069	-259.674	-46.0178	15.749	-225.141	-36.856	17.5553	-267.056	-61.0327	53.1771	-244.965	-64.4733	32.6587	-218.551	-47.6775	30.898	-287.34	-44.8723	91.4307	-286.377	-41.2287	122.999	-288.752	-11.1937	106.685	
41	0.341667	-235.126	23.33	114.904	-213.82	22.8875	98.5822	-197.473	28.7199	69.9147	-198.01	16.3257	46.1881	-261.12	27.1484	44.3696	-256.329	28.0526	16.3469	-239.564	11.0017	-3.71433	-277.114	7.28006	34.4224	-266.727	2.31352	5.55935	-240.296	-17.4036	-6.74811	-281.752	-14.9344	38.5981	-264.581	-20.2304	12.7324	-233.124	-31.4292	13.8984	-282.539	-37.726	46.422	-262.292	-46.0783	26.2216	-229.235	-49.8322	30.015	-288.755	-11.5338	89.4607	-287.078	-11.0251	119.201	-271.841	15.8988	107.384	
42	0.35	-206.182	15.0014	117.5	-180.386	10.5573	106.275	-168.071	5.40509	79.7606	-166.549	-3.66821	59.0137	-216.304	36.0771	50.0087	-208.168	33.2821	18.4863	-196.871	11.2045	-1.35514	-240.261	25.2099	34.7786	-233.659	15.2677	6.59127	-212.428	-12.8533	-4.46521	-255.743	7.25933	38.1501	-244.712	-9.13088	11.3979	-221.377	-30.9792	15.2163	-268.821	-12.2704	44.4413	-253.875	-28.0107	23.947	-228.333	-45.0949	28.2734	-265.21	12.7473	90.587	-268.393	10.1443	118.728	-240.288	26.5873	108.662	
43	0.358333	-177.321	7.86382	127.45	-156.823	-5.3606	115.455	-139.476	-13.9858	98.3309	-136.045	-26.7549	71.0368	-176.957	25.3797	53.2711	-161.9	23.4881	29.4189	-157.562	1.1273	8.27984	-200.083	21.2553	42.3296	-188.293	9.49594	11.1285	-183.047	-22.0659	3.59202	-216.613	11.305	37.9108	-210.623	-5.95926	15.9985	-199.612	-39.3925	22.5801	-235.021	-2.43949	44.333	-229.194	-24.0566	27.1071	-211.88	-47.396	33.2402	-228.976	22.0652	88.4014	-241.116	22.3135	117.758	-203.637	28.0089	112.655	
44	0.366667	-159.592	2.50239	135.547	-132.406	-14.3466	129.42	-112.521	-27.015	109.673	-114.5	-40.0118	88.6082	-143.803	11.3681	64.372	-130.43	7.16503	38.8367	-124.561	-19.8839	19.6074	-165.086	9.2092	50.1698	-158.335	-4.22572	21.4295	-151.065	-40.1287	15.9141	-186.155	-0.0677089	41.8656	-179.199	-20.0225	23.3802	-173.029	-53.1415	36.7243	-207.312	-10.6171	52.6817	-199.972	-38.0453	35.4363	-182.485	-59.1443	50.8978	-202.287	16.6001	91.9961	-210.139	22.4032	118.569	-175.064	24.2173	112.854	
45	0.375	-144.986	3.08727	139.564	-118.554	-11.8625	135.672	-102.212	-24.6873	124.105	-95.0209	-40.3393	107.359	-129.579	0.281742	68.5166	-112.988	-9.3823	44.657	-104.208	-35.6361	32.4083	-149.597	-6.93886	52.0147	-140.947	-28.4334	27.8943	-130.492	-58.9061	31.1797	-166.665	-17.4391	52.1404	-157.977	-40.6553	35.2182	-148.897	-69.683	57.5587	-188.606	-32.525	56.5302	-179.305	-58.898	49.1975	-162.597	-74.4765	69.1923	-193.365	2.29726	93.033	-200.982	15.2336	119.293	-166.964	17.2639	114.953	
46	0.383333	-145.074	22.0378	132.616	-116.727	16.7266	134.194	-97.0915	4.80304	122.248	-91.692	-19.2126	107.379	-131.606	3.41855	66.5831	-116.541	-7.40395	43.6374	-100.864	-35.8077	38.0182	-146.853	-11.0012	53.1964	-130.037	-34.3239	33.6571	-114.998	-60.8306	44.8606	-165.976	-30.0393	56.8468	-144.053	-50.5736	45.4071	-131.224	-70.2701	70.8391	-177.595	-45.8385	65.5233	-161.275	-65.6729	61.7776	-142.834	-73.113	86.6058	-188.363	-4.12452	91.9712	-204.469	8.19522	116.229	-170.34	20.6867	108.769	
47	0.391667	-167.35	42.6671	124.003	-141.354	45.7908	118.729	-114.446	45.7145	104.331	-101.003	25.1588	94.6704	-149.005	16.9478	54.9547	-131.923	10.3362	36.4667	-105.252	-8.72804	31.8815	-159.861	-4.58594	51.7596	-137.835	-22.8328	31.9444	-107.505	-36.5874	44.5989	-164.38	-27.6196	54.589	-139.549	-39.7823	47.8833	-117.092	-46.9156	74.3328	-172.238	-41.8877	72.2385	-147.032	-57.9875	68.5523	-125.024	-51.4972	90.6674	-198.225	-7.46104	94.6479	-213.615	4.20402	111.637	-190.814	26.5176	101.12	
48	0.4	-198.16	48.0002	117.327	-175.126	61.8209	107.067	-152.898	71.6632	88.2234	-134.912	51.7897	77.1282	-178.111	27.1018	46.8575	-159.873	22.2179	23.6079	-130.336	14.3774	18.3475	-179.423	0.842473	44.0119	-153.058	-4.25694	21.9667	-118.844	-7.2322	31.7012	-175.697	-16.4645	52.077	-145.938	-27.5401	40.6376	-121.835	-15.469	63.0004	-174.256	-39.0322	65.5379	-145.075	-41.1162	60.3317	-124.727	-30.0588	74.8495	-211.427	-11.5646	90.8972	-224.958	-5.81672	110.688	-215.69	20.4221	97.8274	
49	0.408333	-220.089	47.1766	110.421	-204.349	61.4807	99.3737	-188.309	72.6473	78.9058	-167.835	63.6578	61.2721	-207.046	25.4271	38.8725	-190.191	27.1056	14.4219	-163.397	26.3164	5.85388	-203.904	0.980161	36.3363	-181.048	-2.57682	14.0033	-143.546	-0.410022	17.2615	-194.923	-19.2561	44.1025	-165.825	-18.1365	29.3402	-139.366	-7.96529	45.7615	-189.715	-32.5581	63.4132	-162.681	-33.6749	48.7419	-134.487	-18.9227	59.6772	-224.803	-16.7025	86.097	-236.428	-11.8665	113.08	-234.424	14.7753	95.7691	
50	0.416667	-244.002	36.0815	113.507	-232.799	55.2221	93.167	-222.665	65.8534	71.9059	-206.063	63.4367	49.2212	-239.718	17.1013	41.2785	-227.943	14.1698	9.99992	-205.139	21.0813	-4.04742	-231.469	-10.0137	35.5524	-213.363	-11.3121	8.22417	-181.114	-3.2176	3.36281	-219.544	-25.8592	43.2423	-192.075	-24.4633	21.5979	-166.376	-4.20452	31.6799	-204.195	-40.6592	56.3247	-180.861	-39.7645	41.8902	-159.885	-17.6879	40.8887	-240.762	-26.8947	90.3456	-248.865	-27.0069	115.585	-255.081	1.46326	97.7753	
51	0.425	-266.64	22.7014	114.07	-263.52	44.3124	93.134	-258.422	52.0811	68.1358	-244.531	49.1019	41.0129	-270.688	-5.87132	41.7171	-264.696	-4.89568	11.9864	-241.209	3.81786	-7.56027	-257.611	-27.5725	38.519	-247.734	-27.1722	9.70197	-212.373	-10.6468	-3.2203	-241.683	-38.5881	42.8693	-221.824	-33.225	17.6136	-197.667	-13.0085	19.5565	-219.824	-51.5731	59.3906	-200.113	-42.8983	35.626	-187.985	-17.7375	31.4331	-253.414	-39.2405	92.7505	-254.688	-40.5781	122.296	-274.396	-14.2112	102.188	
52	0.433333	-284.633	7.86522	113.824	-285.518	28.556	95.8176	-289.093	40.1422	63.3522	-277.076	36.1926	41.366	-295.402	-23.4765	48.827	-294.506	-23.6351	18.4222	-274.612	-12.3339	-4.18405	-281.108	-45.4106	40.2448	-274.633	-42.4633	12.6926	-249.964	-20.8609	-4.38968	-259.458	-53.3582	48.0068	-247.718	-45.1748	18.7121	-226.211	-19.6697	14.3239	-237.73	-59.4356	57.8642	-222.483	-49.508	33.2652	-208.825	-22.421	23.8407	-268.008	-49.4687	95.6434	-266.191	-50.7613	128.951	-290.898	-27.0634	106.519	
